HIERARCHY
ROOT Hips
{
	OFFSET -0.179506 -22.333345 2.821913
	CHANNELS 6 Xposition Yposition Zposition Zrotation Yrotation Xrotation 
	JOINT LeftUpLeg
	{
		OFFSET 6.951974 -9.140623 -0.681533
		CHANNELS 3 Zrotation Yrotation Xrotation
		JOINT LeftLeg
		{
			OFFSET 3.427654 -37.519855 -0.449580
			CHANNELS 3 Zrotation Yrotation Xrotation
			JOINT LeftFoot
			{
				OFFSET -1.359570 -39.796059 -4.369333
				CHANNELS 3 Zrotation Yrotation Xrotation
				JOINT LeftToe
				{
					OFFSET 2.635814 -5.579078 11.928840
					CHANNELS 3 Zrotation Yrotation Xrotation
					End Site
					{
						OFFSET 0.000000 0.000000 0.000000
					}
				}
			}
		}
	}
	JOINT RightUpLeg
	{
		OFFSET -6.767048 -9.052170 -0.431982
		CHANNELS 3 Zrotation Yrotation Xrotation
		JOINT RightLeg
		{
			OFFSET -3.829005 -38.256897 -0.885003
			CHANNELS 3 Zrotation Yrotation Xrotation
			JOINT RightFoot
			{
				OFFSET 1.577377 -39.841461 -4.231180
				CHANNELS 3 Zrotation Yrotation Xrotation
				JOINT RightToe
				{
					OFFSET -2.537174 -4.814398 12.334795
					CHANNELS 3 Zrotation Yrotation Xrotation
					End Site
					{
						OFFSET 0.000000 0.000000 0.000000
					}
				}
			}
		}
	}
	JOINT Spine
	{
		OFFSET -0.253288 10.896323 -2.669631
		CHANNELS 3 Zrotation Yrotation Xrotation
		JOINT Spine1
		{
			OFFSET 0.548704 13.518043 0.109247
			CHANNELS 3 Zrotation Yrotation Xrotation
			JOINT Spine2
			{
				OFFSET 0.145701 5.292222 2.542457
				CHANNELS 3 Zrotation Yrotation Xrotation
				JOINT Neck
				{
					OFFSET -0.277840 21.387037 -4.285703
					CHANNELS 3 Zrotation Yrotation Xrotation
					JOINT Head
					{
						OFFSET 0.515184 6.496960 5.134897
						CHANNELS 3 Zrotation Yrotation Xrotation
						End Site
						{
							OFFSET 0.000000 0.000000 0.000000
						}
					}
				}
				JOINT LeftShoulder
				{
					OFFSET 7.884473 12.174932 -3.408961
					CHANNELS 3 Zrotation Yrotation Xrotation
					JOINT LeftArm
					{
						OFFSET 9.097692 3.046888 -0.886815
						CHANNELS 3 Zrotation Yrotation Xrotation
						JOINT LeftForeArm
						{
							OFFSET 25.961220 -1.277207 -2.745643
							CHANNELS 3 Zrotation Yrotation Xrotation
							JOINT LeftHand
							{
								OFFSET 24.923361 0.898606 -0.117091
								CHANNELS 3 Zrotation Yrotation Xrotation
								End Site
								{
									OFFSET 0.000000 0.000000 0.000000
								}
							}
						}
					}
				}
				JOINT RightShoulder
				{
					OFFSET -8.175920 11.883285 -3.861528
					CHANNELS 3 Zrotation Yrotation Xrotation
					JOINT RightArm
					{
						OFFSET -9.601238 3.255117 -0.914307
						CHANNELS 3 Zrotation Yrotation Xrotation
						JOINT RightForeArm
						{
							OFFSET -25.374195 -1.332924 -2.140099
							CHANNELS 3 Zrotation Yrotation Xrotation
							JOINT RightHand
							{
								OFFSET -25.529810 0.777228 -0.555919
								CHANNELS 3 Zrotation Yrotation Xrotation
								End Site
								{
									OFFSET 0.000000 0.000000 0.000000
								}
							}
						}
					}
				}
			}
		}
	}
}
MOTION
Frames: 15
Frame Time: 0.033333
-2.956477 -11.527376 95.641617 -50.174201 -0.637957 83.981388 -7.266994 0.400711 10.136919 3.160715 -4.687949 -2.526740 0.216479 10.114796 -4.277887 nan nan nan -0.722976 0.905992 -18.501669 1.714828 -3.549801 10.565908 6.682880 -5.934311 6.857150 nan nan nan -3.508419 -3.050925 5.961307 3.927591 -3.853514 3.899538 0.816574 -2.301109 0.617157 2.068078 -10.764992 2.907852 14.628707 -2.835076 -2.414181 -15.947801 0.799568 -0.531313 -65.789290 -16.788803 22.352261 15.957125 -62.221659 -40.093267 -5.061036 -24.376585 -38.676568 12.204898 -3.316537 -2.432152 51.332560 7.138563 9.119404 -6.483119 74.919059 -21.805220 10.621504 17.759697 -37.739180 
-3.449276 -11.911846 95.546013 -50.138215 -0.790883 84.145361 -7.469763 0.600403 10.598656 3.321964 -4.925817 -2.953211 0.244326 10.188971 -4.651897 nan nan nan -0.786685 0.624150 -18.703224 1.833537 -3.219215 8.687839 6.735416 -5.861838 7.058777 nan nan nan -3.685791 -3.065121 5.709258 3.943113 -3.902763 3.972544 0.864101 -2.319772 0.735114 1.865102 -11.190249 3.006083 15.023837 -2.809769 -2.382046 -16.068873 0.354103 -0.307823 -65.367201 -17.166621 22.623791 14.667967 -62.469993 -39.632904 -2.329209 -24.653589 -40.040439 12.257860 -3.419604 -2.476167 51.055199 6.785704 8.774988 -5.100978 75.156218 -20.709700 9.366906 17.695089 -38.032990 
-3.964227 -12.294029 95.454041 -50.075256 -0.908356 84.244662 -7.583079 0.831139 11.122722 3.437514 -5.210651 -3.324423 0.117867 10.209062 -4.975018 nan nan nan -0.780543 0.279892 -18.763904 1.975530 -3.117212 6.773373 6.645076 -6.006544 7.408417 nan nan nan -3.879334 -3.072541 5.455288 3.969070 -3.985387 4.101011 0.960782 -2.333976 0.891855 1.715887 -11.570175 3.070675 15.398446 -2.781861 -2.265926 -16.399310 -0.211318 -0.153957 -64.837086 -17.513420 22.688499 14.281352 -62.624288 -40.102092 -0.943902 -24.679813 -40.607092 12.424099 -3.312833 -2.562470 50.543656 6.292515 8.380183 -4.178857 75.418875 -20.125142 8.837938 17.586197 -37.784428 
-4.474680 -12.682235 95.372780 -50.019486 -1.033114 84.279757 -7.668889 1.134438 11.750060 3.514702 -5.449045 -3.747062 0.075826 10.115769 -5.188162 nan nan nan -0.715656 -0.072971 -18.710483 2.000951 -3.134909 4.936874 6.552425 -6.432929 7.825705 nan nan nan -4.012098 -3.038443 5.246978 3.976760 -4.095849 4.442572 0.944901 -2.379626 0.807258 1.818155 -11.877032 3.104503 15.585710 -2.838304 -2.037806 -16.604880 -0.521034 -0.115096 -64.241201 -18.141830 22.463606 14.719233 -62.061090 -40.187020 -5.287412 -23.911917 -39.285838 12.636970 -3.268711 -2.567385 50.388606 5.954301 8.126393 -6.408168 75.372516 -22.162102 11.662485 17.208526 -36.465115 
-4.993925 -13.048012 95.290375 -50.039506 -1.185907 84.372789 -7.734965 1.469423 12.209945 3.522900 -5.513544 -3.950426 0.116880 9.956376 -5.533277 nan nan nan -0.602452 -0.425405 -18.814363 1.894527 -3.290009 3.436605 6.685815 -6.882190 8.192995 nan nan nan -4.115390 -2.981047 4.972439 3.928015 -4.155270 4.948959 0.915524 -2.552703 0.525524 2.209754 -12.004935 3.145503 15.410330 -3.040472 -1.898236 -16.668661 -0.708923 -0.278221 -63.702698 -18.575035 21.629887 18.031223 -61.060731 -40.931314 -13.850915 -21.708327 -34.306253 12.744284 -3.160980 -2.481758 50.630824 5.811861 7.793998 -10.416815 74.917397 -25.221123 17.379763 16.727738 -33.645056 
-5.453391 -13.606886 95.218315 -49.476043 -1.309861 84.475356 -8.149450 1.197626 12.726810 3.917755 -6.075691 -4.162776 0.130089 10.330280 -5.968191 nan nan nan -0.971356 -1.247119 -18.736326 2.194324 -3.790530 1.942889 6.985251 -7.133222 8.607686 nan nan nan -3.965714 -3.177822 4.755118 3.911503 -4.485415 4.760032 0.843339 -2.625380 0.758067 1.554854 -12.690620 3.613418 16.060880 -2.735700 -1.976628 -17.306040 -1.272553 -0.146405 -62.580587 -18.921910 22.049816 13.870548 -61.548667 -37.838969 -6.237250 -23.524102 -37.711311 12.838099 -3.199327 -2.778721 49.709151 5.085735 7.337550 -5.411372 75.383677 -20.986612 13.315825 17.527266 -34.632166 
-5.996984 -13.781507 95.069489 -50.182713 -1.539550 84.657725 -8.093689 1.978674 12.926283 3.809233 -6.021323 -4.231244 0.024138 10.183505 -6.394057 nan nan nan -0.578059 -0.933852 -19.392560 1.734694 -3.838661 1.428131 7.312836 -7.373374 8.785042 nan nan nan -4.520087 -3.032133 5.105003 3.984849 -3.962015 4.229491 1.101004 -2.579649 0.889062 1.632286 -12.630669 3.610554 16.408015 -2.956256 -2.026510 -17.426073 -1.411968 -0.373409 -62.139311 -19.278298 22.348383 12.121367 -61.502489 -36.387678 -3.823423 -23.809684 -38.526632 13.114926 -3.339022 -2.913673 49.178686 4.723088 7.157214 -2.801653 75.579545 -18.514223 11.666588 17.856871 -35.111178 
-6.531845 -14.364091 94.999260 -49.386945 -1.496079 84.740594 -8.219320 1.722261 13.401877 4.148325 -6.451124 -4.264502 -0.101323 10.191753 -6.883640 nan nan nan -0.832266 -1.571924 -19.014767 1.977265 -4.491025 -0.009373 7.267830 -7.749303 8.927716 nan nan nan -4.118496 -3.311933 4.753962 3.908264 -4.408524 4.409442 0.987717 -2.772192 0.785944 1.293274 -12.813628 4.017361 16.703412 -2.936813 -2.059581 -18.013727 -1.663230 -0.205320 -61.558342 -19.719774 22.057938 10.691714 -60.807436 -34.949256 -4.267064 -25.301141 -37.811620 13.047677 -3.355990 -2.964160 48.909134 4.060254 6.804043 -1.511197 75.528662 -17.226501 12.113702 18.452209 -34.575428 
-7.070807 -14.638968 94.869514 -49.548719 -1.641705 84.766519 -8.159660 1.991173 13.797493 4.014418 -6.552259 -4.266876 -0.260704 10.169614 -7.310832 nan nan nan -0.608666 -1.516287 -19.144763 1.615586 -4.775979 -0.665872 7.327207 -8.175833 8.990156 nan nan nan -4.363906 -3.321927 4.977331 3.919827 -4.299094 4.230156 1.024031 -2.867966 0.798530 1.578440 -12.766369 3.723144 16.802681 -3.134054 -1.572908 -18.042606 -1.653124 -0.168042 -61.382132 -20.106029 22.115849 10.482656 -60.642711 -34.918654 -4.306429 -25.052233 -37.117859 13.318851 -3.422782 -2.925373 48.729321 3.968279 6.849269 -1.849943 75.474226 -17.622564 11.648232 18.136226 -34.583236 
-7.561428 -15.083097 94.744797 -49.036609 -1.777194 84.819653 -8.290036 1.835998 14.094214 3.986389 -7.014896 -4.004261 -0.252017 10.340887 -7.814215 nan nan nan -0.814968 -2.010371 -19.057830 1.659274 -5.156439 -1.445573 7.179083 -8.649286 8.842433 nan nan nan -4.358495 -3.420743 4.773845 3.924187 -4.631765 4.471522 0.962286 -3.005749 0.802709 1.511432 -13.432833 3.570504 16.869518 -3.047217 -1.175153 -18.154267 -1.945589 0.158617 -61.338847 -20.473548 22.017994 11.805110 -60.982668 -36.137467 -4.805573 -23.245109 -36.198155 13.357887 -3.499660 -2.939106 48.638275 3.673834 6.639297 -2.172069 75.709677 -17.907057 12.056846 17.505000 -34.043506 
-8.053191 -15.562613 94.623077 -48.372881 -1.946381 84.857151 -8.526273 1.432021 14.411674 3.992655 -7.653698 -3.718345 -0.222982 10.694913 -8.327369 nan nan nan -1.193673 -2.666012 -18.909497 1.873366 -5.615262 -2.033098 7.084064 -8.950137 8.482620 nan nan nan -4.370582 -3.572644 4.603701 3.935270 -5.107438 4.642455 0.878996 -3.045890 0.758317 1.128915 -14.333878 3.487508 17.235307 -2.872442 -0.582808 -18.296251 -2.316779 0.510513 -61.049101 -20.821806 22.566602 10.871959 -61.706769 -36.060577 0.116594 -22.346728 -38.811796 13.399071 -3.561870 -3.087227 48.242523 3.160783 6.663886 0.343989 76.059126 -16.140025 9.237982 17.524999 -35.353278 
-8.566541 -16.048613 94.501488 -47.841282 -2.131670 84.953819 -8.808892 1.005600 14.660777 4.010260 -8.125866 -3.388827 -0.161205 11.031362 -8.831673 nan nan nan -1.584170 -3.113008 -18.884013 2.082646 -6.038039 -2.270603 7.139719 -9.348455 7.977986 nan nan nan -4.372005 -3.679123 4.175226 3.916223 -5.505318 4.953829 0.790324 -3.172224 0.762637 0.766231 -14.985554 3.510315 17.602990 -2.816890 -0.056610 -18.497509 -2.659815 0.931658 -60.654597 -21.344193 22.490034 10.395286 -61.812660 -35.930517 1.103463 -22.097154 -39.180997 13.514197 -3.516579 -2.976857 48.067938 2.928168 6.401007 0.350699 75.987468 -16.346250 8.835559 17.338426 -35.182389 
-9.140782 -16.365864 94.408379 -47.962853 -2.126493 84.810641 -8.567831 1.281329 15.253597 3.847576 -8.354580 -3.322794 -0.319553 11.072372 -9.328650 nan nan nan -1.323528 -2.955470 -18.813457 1.820555 -6.302637 -2.097783 7.307533 -9.620308 7.535536 nan nan nan -4.440331 -3.731049 4.347085 3.963163 -5.417735 5.222647 0.870318 -3.187117 0.533021 0.885981 -15.026709 3.637898 17.638565 -3.081824 -0.059913 -18.664787 -2.881269 0.942178 -60.611158 -21.726256 22.406606 11.006001 -61.236161 -36.447303 -0.634026 -22.039720 -37.792185 13.666879 -3.405817 -2.860792 48.004726 2.787726 6.145512 -0.501178 75.745657 -17.042275 10.250482 17.351064 -34.270539 
-9.717177 -16.715012 94.310471 -47.932760 -2.088930 84.758111 -8.315822 1.535226 15.737009 3.729704 -8.711400 -3.208226 -0.562428 11.117668 -9.852191 nan nan nan -1.077640 -2.927682 -18.775650 1.620822 -6.593570 -1.842819 7.213770 -9.938402 7.184335 nan nan nan -4.415069 -3.849479 4.327386 4.000125 -5.404434 5.517518 0.943585 -3.291225 0.429529 1.088621 -15.082338 3.597413 17.525077 -3.285372 -0.063775 -18.815223 -3.108742 0.917054 -60.708769 -22.000808 22.185022 12.013464 -60.678807 -36.902025 -2.327656 -21.657039 -35.954722 13.674534 -3.297380 -2.758563 47.980152 2.660413 5.899176 -0.518028 75.572164 -16.711995 11.501126 17.268507 -33.379531 
-10.250021 -17.079313 94.184021 -47.943159 -2.177384 84.951770 -8.300325 1.550941 15.743532 3.525296 -8.958134 -2.672317 -0.775776 11.223143 -10.508295 nan nan nan -1.054325 -2.852785 -19.080798 1.536593 -7.044325 -1.418221 7.099812 -10.176368 6.826997 nan nan nan -4.367047 -3.918341 4.115843 3.987594 -5.380597 5.632930 0.960744 -3.350414 0.411843 1.123411 -15.228698 3.545316 17.600386 -3.484370 -0.031468 -18.917022 -3.312659 0.913321 -60.726547 -22.348969 22.009188 11.848815 -60.106814 -36.258058 -3.542421 -22.053235 -34.732680 13.593558 -3.285367 -2.805262 48.014826 2.409227 5.569864 0.245402 75.339260 -15.484895 12.029178 17.527093 -32.280235 
